<?xml version="1.0" encoding="utf-8"?>
<svg viewBox="191.58 199.864 136.323 107.614" xmlns="http://www.w3.org/2000/svg">
  <path d="M 230.327 -5.424 L 200.227 -57.624 C 199.727 -58.424 198.927 -58.924 197.927 -58.924 C 197.027 -58.924 196.127 -58.424 195.627 -57.624 L 179.727 -30.024 L 174.627 -38.924 C 174.127 -39.724 173.327 -40.224 172.327 -40.224 C 171.427 -40.224 170.527 -39.724 170.027 -38.924 L 150.727 -5.424 C 150.227 -4.624 150.227 -3.624 150.727 -2.824 C 151.227 -2.024 152.027 -1.524 153.027 -1.524 L 167.827 -1.524 L 191.627 -1.524 L 228.027 -1.524 C 228.927 -1.524 229.827 -2.024 230.327 -2.824 C 230.827 -3.624 230.827 -4.624 230.327 -5.424 L 230.327 -5.424 Z" id="path4264" style="paint-order: fill; fill: rgb(255, 255, 255);" transform="matrix(1.024698, 0, 0, 1.339635, 64.3765, 293.628342)"/>
  <path d="M 4 18 L 4 14.3 C 4 13.472 3.328 12.8 2.5 12.8 L 2 12.8 L 2 11.2 L 2.5 11.2 C 3.328 11.2 4 10.528 4 9.7 L 4 6 C 4 4.343 5.343 3 7 3 L 8 3 L 8 5 L 7 5 C 6.448 5 6 5.448 6 6 L 6 10.1 C 6 10.964 5.446 11.73 4.626 12 C 5.446 12.27 6 13.036 6 13.9 L 6 18 C 6 18.552 6.448 19 7 19 L 8 19 L 8 21 L 7 21 C 5.343 21 4 19.657 4 18 Z" style="paint-order: fill; fill: rgb(255, 255, 255);" transform="matrix(5.944409, 0, 0, 5.978532, 179.690764, 181.928269)"/>
  <path d="M 22.933 14.3 L 22.933 18 C 22.933 19.657 21.59 21 19.933 21 L 18.933 21 L 18.933 19 L 19.933 19 C 20.485 19 20.933 18.552 20.933 18 L 20.933 13.9 C 20.933 13.036 21.487 12.27 22.307 12 C 21.487 11.73 20.933 10.964 20.933 10.1 L 20.933 6 C 20.933 5.448 20.485 5 19.933 5 L 18.933 5 L 18.933 3 L 19.933 3 C 21.59 3 22.933 4.343 22.933 6 L 22.933 9.7 C 22.933 10.528 23.605 11.2 24.433 11.2 L 24.933 11.2 L 24.933 12.8 L 24.433 12.8 C 23.605 12.8 22.933 13.472 22.933 14.3 Z" style="paint-order: fill; fill: rgb(255, 255, 255);" transform="matrix(5.944409, 0, 0, 5.978532, 179.690764, 181.928269)"/>
</svg>