<svg id="visual" viewBox="0 0 900 900" width="900" height="900" xmlns="http://www.w3.org/2000/svg" xmlns:xlink="http://www.w3.org/1999/xlink" version="1.1"><g transform="translate(481.1512721982124 494.41807002026303)"><path d="M217 -321.7C278.8 -253.8 324.9 -187.1 347.7 -113.7C370.6 -40.3 370.3 40 363.6 135.9C356.9 231.8 343.7 343.5 282.1 382C220.4 420.6 110.2 386.1 19.7 358.9C-70.7 331.7 -141.5 311.9 -201.7 272.9C-261.9 233.8 -311.7 175.6 -354.9 101.4C-398.2 27.2 -434.9 -63 -429.3 -157.7C-423.6 -252.4 -375.5 -351.5 -296.9 -414C-218.3 -476.4 -109.1 -502.2 -15.8 -480.5C77.6 -458.8 155.2 -389.6 217 -321.7" fill="#BB004B"></path></g></svg>