<svg id="visual" viewBox="0 0 900 900" width="900" height="900" xmlns="http://www.w3.org/2000/svg" xmlns:xlink="http://www.w3.org/1999/xlink" version="1.1"><g transform="translate(449.1538839719833 439.68450000453345)"><path d="M297.2 -382.2C380.4 -348.6 439.8 -255.4 430.9 -167.3C422 -79.2 344.8 3.9 316.7 106.7C288.5 209.6 309.6 332.4 265 384.2C220.4 436 110.2 417 7.5 406.7C-95.2 396.4 -190.4 394.8 -267 353.3C-343.6 311.9 -401.5 230.6 -421.7 143C-441.9 55.4 -424.5 -38.4 -381.6 -109.7C-338.8 -180.9 -270.5 -229.6 -202.6 -268.2C-134.8 -306.9 -67.4 -335.4 19.8 -362.7C107 -389.9 214 -415.8 297.2 -382.2" fill="#BB004B"></path></g></svg>