<svg id="visual" viewBox="0 0 960 300" width="960" height="300" xmlns="http://www.w3.org/2000/svg" xmlns:xlink="http://www.w3.org/1999/xlink" version="1.1"><rect x="0" y="0" width="960" height="300" fill="#27223A"></rect><path d="M0 99L22.8 99.8C45.7 100.7 91.3 102.3 137 99C182.7 95.7 228.3 87.3 274 86.7C319.7 86 365.3 93 411.2 93.3C457 93.7 503 87.3 548.8 84.5C594.7 81.7 640.3 82.3 686 88.2C731.7 94 777.3 105 823 110.5C868.7 116 914.3 116 937.2 116L960 116L960 0L937.2 0C914.3 0 868.7 0 823 0C777.3 0 731.7 0 686 0C640.3 0 594.7 0 548.8 0C503 0 457 0 411.2 0C365.3 0 319.7 0 274 0C228.3 0 182.7 0 137 0C91.3 0 45.7 0 22.8 0L0 0Z" fill="#17293a"></path><path d="M0 75L22.8 73C45.7 71 91.3 67 137 69C182.7 71 228.3 79 274 82.3C319.7 85.7 365.3 84.3 411.2 83.8C457 83.3 503 83.7 548.8 83.7C594.7 83.7 640.3 83.3 686 81.2C731.7 79 777.3 75 823 71C868.7 67 914.3 63 937.2 61L960 59L960 0L937.2 0C914.3 0 868.7 0 823 0C777.3 0 731.7 0 686 0C640.3 0 594.7 0 548.8 0C503 0 457 0 411.2 0C365.3 0 319.7 0 274 0C228.3 0 182.7 0 137 0C91.3 0 45.7 0 22.8 0L0 0Z" fill="#273749"></path><path d="M0 43L22.8 42.8C45.7 42.7 91.3 42.3 137 45.5C182.7 48.7 228.3 55.3 274 58.3C319.7 61.3 365.3 60.7 411.2 57.8C457 55 503 50 548.8 47.5C594.7 45 640.3 45 686 44.5C731.7 44 777.3 43 823 44.5C868.7 46 914.3 50 937.2 52L960 54L960 0L937.2 0C914.3 0 868.7 0 823 0C777.3 0 731.7 0 686 0C640.3 0 594.7 0 548.8 0C503 0 457 0 411.2 0C365.3 0 319.7 0 274 0C228.3 0 182.7 0 137 0C91.3 0 45.7 0 22.8 0L0 0Z" fill="#374659"></path><path d="M0 25L22.8 27.2C45.7 29.3 91.3 33.7 137 33.7C182.7 33.7 228.3 29.3 274 29C319.7 28.7 365.3 32.3 411.2 32.2C457 32 503 28 548.8 27.3C594.7 26.7 640.3 29.3 686 29.5C731.7 29.7 777.3 27.3 823 25.3C868.7 23.3 914.3 21.7 937.2 20.8L960 20L960 0L937.2 0C914.3 0 868.7 0 823 0C777.3 0 731.7 0 686 0C640.3 0 594.7 0 548.8 0C503 0 457 0 411.2 0C365.3 0 319.7 0 274 0C228.3 0 182.7 0 137 0C91.3 0 45.7 0 22.8 0L0 0Z" fill="#475569"></path></svg>